<svg width="1140" height="606" viewBox="0 0 1140 606" fill="none" xmlns="http://www.w3.org/2000/svg">
<mask id="mask0_299_1901" style="mask-type:alpha" maskUnits="userSpaceOnUse" x="0" y="0" width="1140" height="606">
<path d="M1140 480.435V40C1140 17.9086 1122.09 0 1100 0H40C17.9086 0 0 17.9086 0 40V565.909C0 588.001 17.9086 605.909 40 605.909H550.651C564.006 605.909 576.479 599.245 583.903 588.143L617.295 538.201C624.718 527.1 637.192 520.435 650.547 520.435H1100C1122.09 520.435 1140 502.526 1140 480.435Z" fill="#3F213B"/>
</mask>
<g mask="url(#mask0_299_1901)">
<path d="M1297.29 127.453C1297.29 540.858 1321.26 656.486 907.853 656.486C494.448 656.486 -113.292 833.698 -113.292 420.293C-113.292 6.88782 135.353 -621.083 548.758 -621.083C962.163 -621.083 1297.29 -285.952 1297.29 127.453Z" fill="#061CA2"/>
<path d="M1313.48 127.959C1313.48 401.421 1091.79 623.106 818.332 623.106C544.87 623.106 323.185 401.421 323.185 127.959C323.185 -145.503 544.87 -367.187 818.332 -367.187C1091.79 -367.187 1313.48 -145.503 1313.48 127.959Z" fill="#001595"/>
<path d="M1297.29 127.453C1297.29 391.697 1083.08 605.91 818.838 605.91C554.594 605.91 340.381 391.697 340.381 127.453C340.381 -136.791 554.594 -351.003 818.838 -351.003C1083.08 -351.003 1297.29 -136.791 1297.29 127.453Z" fill="#061CA2"/>
<path d="M1255.82 127.453C1255.82 368.793 1060.18 564.437 818.838 564.437C577.498 564.437 381.854 368.793 381.854 127.453C381.854 -113.886 577.498 -309.53 818.838 -309.53C1060.18 -309.53 1255.82 -113.886 1255.82 127.453Z" fill="#001595"/>
<path d="M1216.37 127.959C1216.37 347.79 1038.16 525.998 818.332 525.998C598.501 525.998 420.293 347.79 420.293 127.959C420.293 -91.8717 598.501 -270.08 818.332 -270.08C1038.16 -270.08 1216.37 -91.8717 1216.37 127.959Z" fill="#061CA2"/>
<path d="M1158.71 127.959C1158.71 315.947 1006.32 468.341 818.332 468.341C630.344 468.341 477.95 315.947 477.95 127.959C477.95 -60.0283 630.344 -212.422 818.332 -212.422C1006.32 -212.422 1158.71 -60.0283 1158.71 127.959Z" fill="#001595"/>
<path d="M1066.66 127.959C1066.66 265.109 955.482 376.291 818.332 376.291C681.182 376.291 570 265.109 570 127.959C570 -9.19073 681.182 -120.373 818.332 -120.373C955.482 -120.373 1066.66 -9.19073 1066.66 127.959Z" fill="#061CA2"/>
</g>
</svg>
