<svg width="62" height="20" viewBox="0 0 62 20" fill="none" xmlns="http://www.w3.org/2000/svg">
<path d="M7.63086 0.875C8.22738 0.875 8.6853 1.12511 8.98633 1.62207C9.2812 2.10899 9.42086 2.82354 9.4209 3.74805C9.4209 6.59651 8.662 10.8147 7.1543 16.3955C7.28303 16.4036 7.4505 16.4102 7.6582 16.4102C8.21452 16.4102 8.81295 16.3303 9.4541 16.1689C9.77853 16.083 10.0342 16.018 10.2207 15.9746C10.3138 15.9529 10.3912 15.937 10.4512 15.9258C10.508 15.9152 10.5591 15.9072 10.5947 15.9072C10.9983 15.9073 11.3222 16.0262 11.542 16.2832C11.7587 16.5366 11.8564 16.9034 11.8564 17.3613C11.8564 17.6673 11.7471 17.9368 11.5332 18.1641C11.322 18.3884 11.0126 18.5676 10.6162 18.708C9.82443 18.9884 8.64998 19.125 7.10352 19.125C4.89887 19.125 3.23198 18.9462 2.1123 18.583C0.997578 18.2214 0.375173 17.6572 0.375 16.8584C0.375 16.503 0.46623 16.213 0.669922 16.0137C0.873093 15.815 1.1671 15.7266 1.52832 15.7266C1.69803 15.7266 2.06441 15.7907 2.61035 15.9102H2.60938C3.20924 16.0373 3.73484 16.1299 4.18555 16.1904C5.65916 11.3256 6.39416 7.2513 6.39551 3.96387C5.33619 4.42962 4.42565 4.78506 3.66309 5.02539C2.86077 5.27824 2.21509 5.40917 1.73145 5.40918C1.38129 5.40918 1.09784 5.3035 0.905273 5.07422C0.716301 4.84897 0.631901 4.52437 0.631836 4.12305C0.631836 3.64107 0.809325 3.2631 1.17285 3.0127L1.17578 3.01172C1.28683 2.93952 1.46785 2.85646 1.70996 2.76367C1.95432 2.67003 2.26925 2.56304 2.65332 2.44238L3.77734 2.05957C4.28841 1.88138 4.9361 1.65253 5.7207 1.37305L6.34961 1.15723C6.54188 1.09539 6.71699 1.04345 6.875 1.00195C7.18908 0.919482 7.44317 0.875038 7.63086 0.875ZM21.46 1.45605C23.5644 1.45605 25.2425 2.14183 26.4785 3.52246C27.7227 4.90222 28.3379 6.79802 28.3379 9.19336C28.3379 12.0523 27.6374 14.3578 26.2256 16.0977C24.8204 17.8317 22.9482 18.6992 20.6211 18.6992C18.3208 18.6992 16.465 18.0015 15.0664 16.5977H15.0654C13.6754 15.1931 12.9864 13.2922 12.9863 10.9102C12.9863 8.10628 13.793 5.82387 15.415 4.07617C17.0356 2.33013 19.0533 1.45614 21.46 1.45605ZM38.1045 1.45605C40.2087 1.45615 41.8861 2.14199 43.1221 3.52246C44.3663 4.90222 44.9814 6.79802 44.9814 9.19336C44.9814 12.0523 44.281 14.3578 42.8691 16.0977C41.464 17.8317 39.5917 18.6992 37.2646 18.6992C35.1082 18.6991 33.3422 18.0859 31.9775 16.8525L31.71 16.5977C30.3199 15.1931 29.63 13.2922 29.6299 10.9102C29.6299 8.10628 30.4366 5.82387 32.0586 4.07617C33.6792 2.32999 35.6977 1.45605 38.1045 1.45605ZM54.748 1.45605C56.8522 1.45611 58.5297 2.14201 59.7656 3.52246C61.0098 4.90222 61.625 6.79802 61.625 9.19336C61.625 12.0521 60.9254 14.3579 59.5137 16.0977C58.1086 17.8316 56.2361 18.6991 53.9092 18.6992C51.7524 18.6992 49.9859 18.086 48.6211 16.8525L48.3535 16.5977C46.9634 15.1931 46.2735 13.2922 46.2734 10.9102C46.2734 8.1063 47.0801 5.82387 48.7021 4.07617C50.3228 2.32995 52.3412 1.45605 54.748 1.45605ZM21.2305 3.87305C19.7279 3.87305 18.4815 4.48676 17.4844 5.72363C16.4511 7.01229 15.9287 8.70302 15.9287 10.8066C15.9287 12.4964 16.3696 13.8229 17.2373 14.8008L17.3984 14.9736C18.218 15.8097 19.28 16.2295 20.5947 16.2295C21.9103 16.2294 23.0393 15.6177 23.9854 14.3701C24.9317 13.1135 25.4082 11.5668 25.4082 9.72266C25.4082 7.90713 25.0192 6.48172 24.2549 5.43457C23.493 4.3909 22.4882 3.8731 21.2305 3.87305ZM37.874 3.87305C36.3716 3.87305 35.125 4.48602 34.1279 5.72266L34.1289 5.72363C33.0954 7.01234 32.5732 8.70281 32.5732 10.8066C32.5733 12.4963 33.0132 13.8229 33.8809 14.8008C34.7207 15.7518 35.8359 16.2295 37.2383 16.2295C38.554 16.2294 39.6828 15.6177 40.6289 14.3701L40.8008 14.1309C41.6329 12.9187 42.0517 11.4516 42.0518 9.72266C42.0518 7.90713 41.6627 6.48172 40.8984 5.43457C40.1365 4.3909 39.1318 3.87305 37.874 3.87305ZM54.5176 3.87305C53.0152 3.87309 51.7695 4.48691 50.7725 5.72363C49.739 7.01233 49.2168 8.70286 49.2168 10.8066C49.2168 12.4963 49.6568 13.823 50.5244 14.8008H50.5254C51.3652 15.7518 52.4795 16.2295 53.8818 16.2295C55.1977 16.2295 56.3273 15.618 57.2734 14.3701C58.2197 13.1135 58.6953 11.5667 58.6953 9.72266C58.6953 7.90713 58.3073 6.48172 57.543 5.43457C56.781 4.39065 55.7755 3.87305 54.5176 3.87305Z" fill="white" stroke="white" stroke-width="0.25"/>
</svg>
