<svg width="23" height="18" viewBox="0 0 23 18" fill="none" xmlns="http://www.w3.org/2000/svg">
<path d="M0.985714 0L22.0143 0C22.5587 0 23 0.447715 23 1C23 1.55228 22.5587 2 22.0143 2L0.985714 2C0.441319 2 0 1.55228 0 1C0 0.447715 0.441319 0 0.985714 0Z" fill="#FF6B24"/>
<path d="M0.985714 8H3.61428C4.15868 8 4.6 8.44772 4.6 9C4.6 9.55228 4.15868 10 3.61428 10H0.985714C0.441319 10 0 9.55228 0 9C0 8.44772 0.441319 8 0.985714 8ZM8.87143 8H22.0143C22.5587 8 23 8.44772 23 9C23 9.55228 22.5587 10 22.0143 10H8.87143C8.32703 10 7.88571 9.55228 7.88571 9C7.88571 8.44772 8.32703 8 8.87143 8Z" fill="#FF6B24"/>
<path d="M0.985714 16H22.0143C22.5587 16 23 16.4477 23 17C23 17.5523 22.5587 18 22.0143 18H0.985714C0.441319 18 0 17.5523 0 17C0 16.4477 0.441319 16 0.985714 16Z" fill="#FF6B24"/>
</svg>
