<svg width="43" height="44" viewBox="0 0 43 44" fill="none" xmlns="http://www.w3.org/2000/svg">
<path d="M37.0491 41.2492C32.6716 45.6267 21.4611 41.5135 12.0098 32.0621C2.55845 22.6108 -1.55474 11.4003 2.82271 7.02281L5.70493 4.14059C7.69469 2.15083 10.9733 2.20343 13.028 4.25807L17.4923 8.72238C19.5469 10.777 19.5995 14.0557 17.6098 16.0454L16.9907 16.6645C15.9164 17.7388 15.8113 19.4718 16.8095 20.6815C17.7724 21.8483 18.8104 23.0105 19.9359 24.136C21.0614 25.2615 22.2236 26.2995 23.3904 27.2624C24.6001 28.2606 26.3331 28.1555 27.4074 27.0812L28.0265 26.4621C30.0162 24.4724 33.2949 24.525 35.3495 26.5796L39.8138 31.0439C41.8685 33.0986 41.9211 36.3772 39.9313 38.367L37.0491 41.2492Z" fill="#FF6B24" stroke="#FF6B24" stroke-width="1.5"/>
<path d="M33.8338 16.121C33.2873 14.7879 32.4728 13.5388 31.3903 12.4564C30.3689 11.435 29.1993 10.6522 27.9507 10.108" stroke="#1E2329" stroke-width="3" stroke-linecap="round"/>
<path d="M27.951 2.48579C30.9404 3.56879 33.7453 5.30861 36.1419 7.70528C38.5988 10.1621 40.3653 13.0478 41.4417 16.1217" stroke="#1E2329" stroke-width="3" stroke-linecap="round"/>
</svg>
