<svg width="25" height="26" viewBox="0 0 25 26" fill="none" xmlns="http://www.w3.org/2000/svg">
<path d="M20.328 18.2512V12.5734L15.2044 15.3235C13.1079 16.4487 10.5574 16.3964 8.51117 15.1856L3.93822 12.4789V18.3173C3.93828 19.3263 4.49869 20.2558 5.40142 20.7432L9.40924 22.9072C10.9324 23.7296 12.7745 23.7546 14.3203 22.9738L18.7955 20.7131C19.7367 20.2376 20.328 19.2878 20.328 18.2512ZM23.01 16.3003V10.9341C23.0099 10.5572 22.7975 10.2109 22.4576 10.0335L18.9346 8.19429L18.8689 8.15612C18.5554 7.95015 18.4464 7.54134 18.6279 7.2083C18.8095 6.87516 19.2173 6.73605 19.5667 6.87622L19.6354 6.90812L23.159 8.7468C23.9843 9.17761 24.4999 10.0186 24.4999 10.9341V16.3003C24.4999 16.703 24.1664 17.0294 23.7549 17.0294C23.3435 17.0294 23.01 16.703 23.01 16.3003ZM21.818 18.2512C21.818 19.8334 20.9154 21.2832 19.4788 22.0089L15.0036 24.2691C13.0161 25.273 10.6482 25.241 8.68986 24.1837L4.68204 22.0197C3.30414 21.2757 2.4483 19.8574 2.44824 18.3173V11.5971L2.00997 11.3379C-0.00332433 10.1466 -0.00332522 7.28894 2.00997 6.09757L9.30796 1.77826C10.8584 0.860811 12.7706 0.747661 14.4228 1.47523L24.0605 5.71992L24.1286 5.75353C24.4556 5.93842 24.5924 6.33943 24.4342 6.68369C24.2759 7.02791 23.8786 7.19347 23.5204 7.07672L23.4494 7.04938L13.8117 2.80525C12.606 2.27428 11.2105 2.35679 10.0791 3.02626L2.78057 7.345C1.72599 7.96905 1.72599 9.46645 2.78057 10.0905L9.28177 13.9376C10.8733 14.8794 12.8572 14.9205 14.488 14.0453L19.8321 11.1767C20.7257 10.6972 21.8178 11.33 21.818 12.3273V18.2512Z" fill="white" stroke="white" stroke-width="0.5"/>
</svg>
