<svg width="64" height="61" viewBox="0 0 64 61" fill="none" xmlns="http://www.w3.org/2000/svg">
<path d="M33.5439 6.57666C40.217 -0.473387 51.0184 -0.4735 57.6914 6.57666C64.3866 13.6503 64.3865 25.1357 57.6914 32.2095L38.2842 52.7134C37.4068 53.758 36.6102 54.6146 35.8848 55.3081L33.3125 56.5864H32V7.2417C32.5622 7.2417 33.1243 7.02002 33.5439 6.57666Z" fill="#FF6B24"/>
<path d="M34.4248 7.4082C40.6193 0.863548 50.615 0.863753 56.8096 7.4082C63.0632 14.0153 63.0631 24.7708 56.8096 31.3779L32.7266 56.8232C32.3321 57.24 31.6679 57.24 31.2734 56.8232L7.19043 31.3779C0.936867 24.7708 0.936842 14.0153 7.19043 7.4082C13.385 0.863754 23.3807 0.863548 29.5752 7.4082L29.8213 7.66895C31.0047 8.91921 32.9953 8.91922 34.1787 7.66895L34.4248 7.4082Z" stroke="#FF6B24" stroke-width="4"/>
</svg>
