<svg width="32" height="32" viewBox="0 0 32 32" fill="none" xmlns="http://www.w3.org/2000/svg">
<path d="M18.4814 0.614209C19.4193 0.226014 20.8143 -0.314152 22.2 0.231111C22.391 0.306265 22.5803 0.384784 22.7679 0.466594C24.1318 1.06162 24.736 2.42902 25.1248 3.36637C25.1943 3.53394 25.2577 3.69143 25.3183 3.84187C25.4539 4.17831 25.5753 4.47966 25.7183 4.77956C25.918 5.19806 26.1069 5.49253 26.3068 5.69246C26.5068 5.89239 26.8012 6.08132 27.2197 6.28092C27.5197 6.42399 27.821 6.54535 28.1575 6.68092C28.3079 6.74149 28.4655 6.80501 28.633 6.87445C29.5704 7.26318 30.9379 7.86735 31.533 9.23127C31.615 9.41908 31.6936 9.60866 31.7689 9.79995C32.3141 11.1857 31.774 12.5807 31.3858 13.5186C31.3165 13.686 31.25 13.8421 31.1865 13.9912L31.1863 13.9918C31.0441 14.3255 30.9167 14.6248 30.8057 14.9381C30.6508 15.3753 30.5761 15.7172 30.5761 16C30.5761 16.2828 30.6508 16.6247 30.8057 17.0619C30.9167 17.3752 31.0439 17.6739 31.186 18.0076L31.1868 18.0095C31.2501 18.1581 31.3167 18.3144 31.3858 18.4814C31.774 19.4193 32.3141 20.8143 31.7689 22.2C31.6938 22.3908 31.6154 22.5799 31.5337 22.7672C30.9386 24.1314 29.5709 24.7356 28.6334 25.1243C28.466 25.1937 28.3087 25.2571 28.1584 25.3176L28.1584 25.3176C27.8218 25.4532 27.5199 25.5748 27.2199 25.7179C26.8013 25.9175 26.5068 26.1065 26.3068 26.3064C26.1069 26.5064 25.9179 26.8009 25.7183 27.2195C25.5753 27.5194 25.454 27.8206 25.3185 28.157C25.2579 28.3075 25.1943 28.4654 25.1248 28.633C24.7361 29.5706 24.1319 30.9384 22.7677 31.5335C22.5802 31.6152 22.391 31.6937 22.2001 31.7689C20.8143 32.3141 19.4193 31.774 18.4814 31.3858C18.3137 31.3164 18.1575 31.2498 18.0082 31.1863L18.0079 31.1862C17.6743 31.0441 17.3752 30.9167 17.062 30.8057C16.6247 30.6508 16.2828 30.5761 16 30.5761C15.7172 30.5761 15.3753 30.6508 14.9381 30.8057C14.625 30.9166 14.3263 31.0438 13.9928 31.1859L13.9915 31.1864C13.8424 31.2499 13.686 31.3165 13.5186 31.3858C12.5807 31.774 11.1857 32.3142 9.79996 31.7689C9.60899 31.6937 9.4197 31.6152 9.23219 31.5334C7.86814 30.9383 7.26393 29.5707 6.87519 28.6332C6.8057 28.4656 6.74225 28.3081 6.68164 28.1577C6.54607 27.8211 6.4247 27.5198 6.28164 27.2198C6.08202 26.8013 5.89308 26.5068 5.69314 26.3068C5.49321 26.1069 5.19871 25.9179 4.78015 25.7183C4.48035 25.5754 4.17926 25.4541 3.84297 25.3186L3.84262 25.3184C3.69241 25.2579 3.53402 25.1941 3.36674 25.1248C2.42927 24.736 1.06162 24.1318 0.466542 22.7678C0.384751 22.5803 0.306249 22.391 0.231112 22.2001C-0.314151 20.8143 0.226012 19.4193 0.614206 18.4814C0.683667 18.3136 0.750265 18.1572 0.81388 18.0078C0.955991 17.6741 1.08331 17.3752 1.1943 17.0619C1.34924 16.6247 1.42392 16.2828 1.42392 16C1.42392 15.7172 1.34924 15.3753 1.1943 14.9381C1.08331 14.6248 0.956081 14.3261 0.813967 13.9924C0.750326 13.8429 0.6837 13.6865 0.614208 13.5186C0.226014 12.5807 -0.314148 11.1857 0.231116 9.79993C0.306317 9.60881 0.384888 9.41939 0.466756 9.23175C1.06185 7.86777 2.42943 7.26357 3.36686 6.87484C3.53441 6.80536 3.69187 6.74192 3.8423 6.68133L3.84231 6.68132C4.17883 6.54576 4.48024 6.42434 4.78019 6.28129C5.19873 6.08168 5.49322 5.89274 5.69315 5.69281C5.89308 5.49287 6.08202 5.19839 6.28164 4.77986C6.4247 4.47991 6.54605 4.17867 6.68162 3.84217C6.74223 3.69171 6.8057 3.53416 6.87521 3.36656C7.26396 2.42916 7.86818 1.06163 9.23216 0.466579C9.41966 0.384779 9.60894 0.306269 9.79992 0.231124C11.1857 -0.314141 12.5806 0.22602 13.5186 0.614213C13.6865 0.683705 13.8429 0.750332 13.9924 0.813972C14.3261 0.956086 14.6248 1.08331 14.938 1.19431C15.3753 1.34924 15.7172 1.42393 16 1.42393C16.2828 1.42393 16.6247 1.34924 17.0619 1.19431C17.3751 1.08331 17.6739 0.956087 18.0076 0.813976L18.0076 0.813968C18.157 0.750332 18.3135 0.683696 18.4814 0.614209Z" fill="#FF6B24"/>
<path d="M16.2621 25.2126C15.7594 25.2126 15.3352 25.0436 14.9896 24.7055C14.644 24.3521 14.4712 23.9295 14.4712 23.4377C14.4712 22.946 14.644 22.5388 14.9896 22.2161C15.3352 21.878 15.7594 21.709 16.2621 21.709C16.7648 21.709 17.189 21.878 17.5346 22.2161C17.8959 22.5542 18.0766 22.9614 18.0766 23.4377C18.0766 23.9295 17.8959 24.3521 17.5346 24.7055C17.189 25.0436 16.7648 25.2126 16.2621 25.2126ZM11.0308 12.7425C11.0308 11.8973 11.2428 11.1059 11.667 10.3683C12.1069 9.61535 12.696 9.01605 13.4344 8.57041C14.1727 8.10941 14.9818 7.87891 15.8615 7.87891C16.757 7.87891 17.5582 8.10941 18.2651 8.57041C18.9877 9.03141 19.5533 9.65377 19.9617 10.4375C20.1862 10.844 20.3512 11.2655 20.4569 11.7021C20.6195 12.3737 20.0674 12.9615 19.3661 13.0377C18.8861 13.0899 18.4675 12.7248 18.3109 12.2779C18.2655 12.1485 18.211 12.0191 18.1473 11.8896C17.9588 11.4594 17.6681 11.1059 17.2754 10.8293C16.8983 10.5374 16.4271 10.3914 15.8615 10.3914C15.1389 10.3914 14.534 10.6296 14.047 11.1059C13.56 11.5669 13.3165 12.1432 13.3165 12.8347C13.3165 13.2035 13.3794 13.5108 13.505 13.7567C13.6307 14.0026 13.835 14.2484 14.1177 14.4943C14.4162 14.7402 14.9346 15.1397 15.673 15.6929L16.1443 16.0617C16.647 16.4459 16.9612 16.8685 17.0869 17.3295C17.2125 17.7751 17.2754 18.4743 17.2754 19.427C17.2754 19.8965 16.8834 20.2755 16.4035 20.2702L16.2268 20.2682C15.6588 20.2619 15.2017 19.8097 15.2017 19.2541V19.0582C15.2017 18.8277 15.1153 18.5819 14.9425 18.3206C14.7697 18.044 14.4398 17.7059 13.9528 17.3064C13.1516 16.6303 12.5782 16.1232 12.2326 15.7851C11.8869 15.447 11.5963 15.0321 11.3607 14.5404C11.1407 14.0487 11.0308 13.4494 11.0308 12.7425Z" fill="white"/>
</svg>
