<svg width="15" height="14" viewBox="0 0 15 14" fill="none" xmlns="http://www.w3.org/2000/svg">
<path d="M11.5241 3.55587C11.5241 1.59202 9.93204 0 7.96819 0C7.65811 0 7.40674 0.251371 7.40674 0.561453C7.40674 0.871536 7.65811 1.12291 7.96819 1.12291C9.31188 1.12291 10.4012 2.21218 10.4012 3.55587C10.4012 4.89956 9.31188 5.98884 7.96819 5.98884C6.6245 5.98884 5.53522 4.89956 5.53522 3.55587C5.53522 3.24579 5.28385 2.99442 4.97377 2.99442C4.66369 2.99442 4.41232 3.24579 4.41232 3.55587C4.41232 5.51973 6.00434 7.11174 7.96819 7.11174C9.93204 7.11174 11.5241 5.51973 11.5241 3.55587Z" fill="#414653"/>
<path d="M12.647 10.9929C12.6469 10.5862 12.3911 10.2232 12.008 10.0864C9.39561 9.15346 6.54077 9.15346 3.92836 10.0864C3.54529 10.2232 3.28944 10.5862 3.28941 10.9929V11.9777C3.28941 12.5249 3.77409 12.9455 4.31582 12.8681L5.03006 12.7658C6.97874 12.4874 8.95764 12.4874 10.9063 12.7658L11.6206 12.8681C12.1623 12.9455 12.647 12.5249 12.647 11.9777V10.9929ZM13.7699 11.9777C13.7699 13.2082 12.6801 14.1532 11.4619 13.9793L10.7469 13.8777C8.90378 13.6144 7.0326 13.6144 5.18943 13.8777L4.47446 13.9793C3.25629 14.1532 2.1665 13.2082 2.1665 11.9777V10.9929C2.16654 10.1117 2.72055 9.32579 3.5504 9.02931C6.40713 8.00905 9.52925 8.00905 12.386 9.02931C13.2158 9.32579 13.7698 10.1117 13.7699 10.9929V11.9777Z" fill="#414653"/>
</svg>
